<svg xmlns="http://www.w3.org/2000/svg" xmlns:xlink="http://www.w3.org/1999/xlink" version="1.1" class="marks" width="1118" height="360" viewBox="0 0 1118 360"><rect width="1118" height="360" fill="white"/><g fill="none" stroke-miterlimit="10" transform="translate(53,10)"><g class="mark-group role-frame root" role="graphics-object" aria-roledescription="group mark container"><g transform="translate(0,0)"><path class="background" aria-hidden="true" d="M0.5,0.5h1000v300h-1000Z" stroke="#ddd"/><g><g class="mark-group role-axis" role="graphics-symbol" aria-roledescription="axis" aria-label="Y-axis for a linear scale with values from 0 to 2,400"><g transform="translate(0.5,0.5)"><path class="background" aria-hidden="true" d="M0,0h0v0h0Z" pointer-events="none"/><g><g class="mark-rule role-axis-grid" pointer-events="none"><line transform="translate(0,300)" x2="1000" y2="0" stroke="#ddd" stroke-width="1" opacity="1"/><line transform="translate(0,275)" x2="1000" y2="0" stroke="#ddd" stroke-width="1" opacity="1"/><line transform="translate(0,250)" x2="1000" y2="0" stroke="#ddd" stroke-width="1" opacity="1"/><line transform="translate(0,225)" x2="1000" y2="0" stroke="#ddd" stroke-width="1" opacity="1"/><line transform="translate(0,200)" x2="1000" y2="0" stroke="#ddd" stroke-width="1" opacity="1"/><line transform="translate(0,175)" x2="1000" y2="0" stroke="#ddd" stroke-width="1" opacity="1"/><line transform="translate(0,150)" x2="1000" y2="0" stroke="#ddd" stroke-width="1" opacity="1"/><line transform="translate(0,125)" x2="1000" y2="0" stroke="#ddd" stroke-width="1" opacity="1"/><line transform="translate(0,100)" x2="1000" y2="0" stroke="#ddd" stroke-width="1" opacity="1"/><line transform="translate(0,75)" x2="1000" y2="0" stroke="#ddd" stroke-width="1" opacity="1"/><line transform="translate(0,50)" x2="1000" y2="0" stroke="#ddd" stroke-width="1" opacity="1"/><line transform="translate(0,25)" x2="1000" y2="0" stroke="#ddd" stroke-width="1" opacity="1"/><line transform="translate(0,0)" x2="1000" y2="0" stroke="#ddd" stroke-width="1" opacity="1"/></g></g><path class="foreground" aria-hidden="true" d="" pointer-events="none" display="none"/></g></g><g class="mark-group role-axis" role="graphics-symbol" aria-roledescription="axis" aria-label="X-axis titled 'year' for a discrete scale with 50 values: 1901, 1902, 1903, 1904, 1905, ending with 1950"><g transform="translate(0.5,300.5)"><path class="background" aria-hidden="true" d="M0,0h0v0h0Z" pointer-events="none"/><g><g class="mark-rule role-axis-tick" pointer-events="none"><line transform="translate(10,0)" x2="0" y2="5" stroke="#888" stroke-width="1" opacity="1"/><line transform="translate(30,0)" x2="0" y2="5" stroke="#888" stroke-width="1" opacity="1"/><line transform="translate(50,0)" x2="0" y2="5" stroke="#888" stroke-width="1" opacity="1"/><line transform="translate(70,0)" x2="0" y2="5" stroke="#888" stroke-width="1" opacity="1"/><line transform="translate(90,0)" x2="0" y2="5" stroke="#888" stroke-width="1" opacity="1"/><line transform="translate(110,0)" x2="0" y2="5" stroke="#888" stroke-width="1" opacity="1"/><line transform="translate(130,0)" x2="0" y2="5" stroke="#888" stroke-width="1" opacity="1"/><line transform="translate(150,0)" x2="0" y2="5" stroke="#888" stroke-width="1" opacity="1"/><line transform="translate(170,0)" x2="0" y2="5" stroke="#888" stroke-width="1" opacity="1"/><line transform="translate(190,0)" x2="0" y2="5" stroke="#888" stroke-width="1" opacity="1"/><line transform="translate(210,0)" x2="0" y2="5" stroke="#888" stroke-width="1" opacity="1"/><line transform="translate(230,0)" x2="0" y2="5" stroke="#888" stroke-width="1" opacity="1"/><line transform="translate(250,0)" x2="0" y2="5" stroke="#888" stroke-width="1" opacity="1"/><line transform="translate(270,0)" x2="0" y2="5" stroke="#888" stroke-width="1" opacity="1"/><line transform="translate(290,0)" x2="0" y2="5" stroke="#888" stroke-width="1" opacity="1"/><line transform="translate(310,0)" x2="0" y2="5" stroke="#888" stroke-width="1" opacity="1"/><line transform="translate(330,0)" x2="0" y2="5" stroke="#888" stroke-width="1" opacity="1"/><line transform="translate(350,0)" x2="0" y2="5" stroke="#888" stroke-width="1" opacity="1"/><line transform="translate(370,0)" x2="0" y2="5" stroke="#888" stroke-width="1" opacity="1"/><line transform="translate(390,0)" x2="0" y2="5" stroke="#888" stroke-width="1" opacity="1"/><line transform="translate(410,0)" x2="0" y2="5" stroke="#888" stroke-width="1" opacity="1"/><line transform="translate(430,0)" x2="0" y2="5" stroke="#888" stroke-width="1" opacity="1"/><line transform="translate(450,0)" x2="0" y2="5" stroke="#888" stroke-width="1" opacity="1"/><line transform="translate(470,0)" x2="0" y2="5" stroke="#888" stroke-width="1" opacity="1"/><line transform="translate(490,0)" x2="0" y2="5" stroke="#888" stroke-width="1" opacity="1"/><line transform="translate(510,0)" x2="0" y2="5" stroke="#888" stroke-width="1" opacity="1"/><line transform="translate(530,0)" x2="0" y2="5" stroke="#888" stroke-width="1" opacity="1"/><line transform="translate(550,0)" x2="0" y2="5" stroke="#888" stroke-width="1" opacity="1"/><line transform="translate(570,0)" x2="0" y2="5" stroke="#888" stroke-width="1" opacity="1"/><line transform="translate(590,0)" x2="0" y2="5" stroke="#888" stroke-width="1" opacity="1"/><line transform="translate(610,0)" x2="0" y2="5" stroke="#888" stroke-width="1" opacity="1"/><line transform="translate(630,0)" x2="0" y2="5" stroke="#888" stroke-width="1" opacity="1"/><line transform="translate(650,0)" x2="0" y2="5" stroke="#888" stroke-width="1" opacity="1"/><line transform="translate(670,0)" x2="0" y2="5" stroke="#888" stroke-width="1" opacity="1"/><line transform="translate(690,0)" x2="0" y2="5" stroke="#888" stroke-width="1" opacity="1"/><line transform="translate(710,0)" x2="0" y2="5" stroke="#888" stroke-width="1" opacity="1"/><line transform="translate(730,0)" x2="0" y2="5" stroke="#888" stroke-width="1" opacity="1"/><line transform="translate(750,0)" x2="0" y2="5" stroke="#888" stroke-width="1" opacity="1"/><line transform="translate(770,0)" x2="0" y2="5" stroke="#888" stroke-width="1" opacity="1"/><line transform="translate(790,0)" x2="0" y2="5" stroke="#888" stroke-width="1" opacity="1"/><line transform="translate(810,0)" x2="0" y2="5" stroke="#888" stroke-width="1" opacity="1"/><line transform="translate(830,0)" x2="0" y2="5" stroke="#888" stroke-width="1" opacity="1"/><line transform="translate(850,0)" x2="0" y2="5" stroke="#888" stroke-width="1" opacity="1"/><line transform="translate(870,0)" x2="0" y2="5" stroke="#888" stroke-width="1" opacity="1"/><line transform="translate(890,0)" x2="0" y2="5" stroke="#888" stroke-width="1" opacity="1"/><line transform="translate(910,0)" x2="0" y2="5" stroke="#888" stroke-width="1" opacity="1"/><line transform="translate(930,0)" x2="0" y2="5" stroke="#888" stroke-width="1" opacity="1"/><line transform="translate(950,0)" x2="0" y2="5" stroke="#888" stroke-width="1" opacity="1"/><line transform="translate(970,0)" x2="0" y2="5" stroke="#888" stroke-width="1" opacity="1"/><line transform="translate(990,0)" x2="0" y2="5" stroke="#888" stroke-width="1" opacity="1"/></g><g class="mark-text role-axis-label" pointer-events="none"><text text-anchor="end" transform="translate(9.5,7) rotate(270) translate(0,3)" font-family="sans-serif" font-size="10px" fill="#000" opacity="1">1901</text><text text-anchor="end" transform="translate(29.5,7) rotate(270) translate(0,3)" font-family="sans-serif" font-size="10px" fill="#000" opacity="1">1902</text><text text-anchor="end" transform="translate(49.5,7) rotate(270) translate(0,3)" font-family="sans-serif" font-size="10px" fill="#000" opacity="1">1903</text><text text-anchor="end" transform="translate(69.5,7) rotate(270) translate(0,3)" font-family="sans-serif" font-size="10px" fill="#000" opacity="1">1904</text><text text-anchor="end" transform="translate(89.5,7) rotate(270) translate(0,3)" font-family="sans-serif" font-size="10px" fill="#000" opacity="1">1905</text><text text-anchor="end" transform="translate(109.5,7) rotate(270) translate(0,3)" font-family="sans-serif" font-size="10px" fill="#000" opacity="1">1906</text><text text-anchor="end" transform="translate(129.5,7) rotate(270) translate(0,3)" font-family="sans-serif" font-size="10px" fill="#000" opacity="1">1907</text><text text-anchor="end" transform="translate(149.5,7) rotate(270) translate(0,3)" font-family="sans-serif" font-size="10px" fill="#000" opacity="1">1908</text><text text-anchor="end" transform="translate(169.5,7) rotate(270) translate(0,3)" font-family="sans-serif" font-size="10px" fill="#000" opacity="1">1909</text><text text-anchor="end" transform="translate(189.5,7) rotate(270) translate(0,3)" font-family="sans-serif" font-size="10px" fill="#000" opacity="1">1910</text><text text-anchor="end" transform="translate(209.5,7) rotate(270) translate(0,3)" font-family="sans-serif" font-size="10px" fill="#000" opacity="1">1911</text><text text-anchor="end" transform="translate(229.5,7) rotate(270) translate(0,3)" font-family="sans-serif" font-size="10px" fill="#000" opacity="1">1912</text><text text-anchor="end" transform="translate(249.5,7) rotate(270) translate(0,3)" font-family="sans-serif" font-size="10px" fill="#000" opacity="1">1913</text><text text-anchor="end" transform="translate(269.5,7) rotate(270) translate(0,3)" font-family="sans-serif" font-size="10px" fill="#000" opacity="1">1914</text><text text-anchor="end" transform="translate(289.5,7) rotate(270) translate(0,3)" font-family="sans-serif" font-size="10px" fill="#000" opacity="1">1915</text><text text-anchor="end" transform="translate(309.5,7) rotate(270) translate(0,3)" font-family="sans-serif" font-size="10px" fill="#000" opacity="1">1916</text><text text-anchor="end" transform="translate(329.5,7) rotate(270) translate(0,3)" font-family="sans-serif" font-size="10px" fill="#000" opacity="1">1917</text><text text-anchor="end" transform="translate(349.5,7) rotate(270) translate(0,3)" font-family="sans-serif" font-size="10px" fill="#000" opacity="1">1918</text><text text-anchor="end" transform="translate(369.5,7) rotate(270) translate(0,3)" font-family="sans-serif" font-size="10px" fill="#000" opacity="1">1919</text><text text-anchor="end" transform="translate(389.5,7) rotate(270) translate(0,3)" font-family="sans-serif" font-size="10px" fill="#000" opacity="1">1920</text><text text-anchor="end" transform="translate(409.5,7) rotate(270) translate(0,3)" font-family="sans-serif" font-size="10px" fill="#000" opacity="1">1921</text><text text-anchor="end" transform="translate(429.5,7) rotate(270) translate(0,3)" font-family="sans-serif" font-size="10px" fill="#000" opacity="1">1922</text><text text-anchor="end" transform="translate(449.5,7) rotate(270) translate(0,3)" font-family="sans-serif" font-size="10px" fill="#000" opacity="1">1923</text><text text-anchor="end" transform="translate(469.5,7) rotate(270) translate(0,3)" font-family="sans-serif" font-size="10px" fill="#000" opacity="1">1924</text><text text-anchor="end" transform="translate(489.5,7) rotate(270) translate(0,3)" font-family="sans-serif" font-size="10px" fill="#000" opacity="1">1925</text><text text-anchor="end" transform="translate(509.5,7) rotate(270) translate(0,3)" font-family="sans-serif" font-size="10px" fill="#000" opacity="1">1926</text><text text-anchor="end" transform="translate(529.5,7) rotate(270) translate(0,3)" font-family="sans-serif" font-size="10px" fill="#000" opacity="1">1927</text><text text-anchor="end" transform="translate(549.5,7) rotate(270) translate(0,3)" font-family="sans-serif" font-size="10px" fill="#000" opacity="1">1928</text><text text-anchor="end" transform="translate(569.5,7) rotate(270) translate(0,3)" font-family="sans-serif" font-size="10px" fill="#000" opacity="1">1929</text><text text-anchor="end" transform="translate(589.5,7) rotate(270) translate(0,3)" font-family="sans-serif" font-size="10px" fill="#000" opacity="1">1930</text><text text-anchor="end" transform="translate(609.5,7) rotate(270) translate(0,3)" font-family="sans-serif" font-size="10px" fill="#000" opacity="1">1931</text><text text-anchor="end" transform="translate(629.5,7) rotate(270) translate(0,3)" font-family="sans-serif" font-size="10px" fill="#000" opacity="1">1932</text><text text-anchor="end" transform="translate(649.5,7) rotate(270) translate(0,3)" font-family="sans-serif" font-size="10px" fill="#000" opacity="1">1933</text><text text-anchor="end" transform="translate(669.5,7) rotate(270) translate(0,3)" font-family="sans-serif" font-size="10px" fill="#000" opacity="1">1934</text><text text-anchor="end" transform="translate(689.5,7) rotate(270) translate(0,3)" font-family="sans-serif" font-size="10px" fill="#000" opacity="1">1935</text><text text-anchor="end" transform="translate(709.5,7) rotate(270) translate(0,3)" font-family="sans-serif" font-size="10px" fill="#000" opacity="1">1936</text><text text-anchor="end" transform="translate(729.5,7) rotate(270) translate(0,3)" font-family="sans-serif" font-size="10px" fill="#000" opacity="1">1937</text><text text-anchor="end" transform="translate(749.5,7) rotate(270) translate(0,3)" font-family="sans-serif" font-size="10px" fill="#000" opacity="1">1938</text><text text-anchor="end" transform="translate(769.5,7) rotate(270) translate(0,3)" font-family="sans-serif" font-size="10px" fill="#000" opacity="1">1939</text><text text-anchor="end" transform="translate(789.5,7) rotate(270) translate(0,3)" font-family="sans-serif" font-size="10px" fill="#000" opacity="1">1940</text><text text-anchor="end" transform="translate(809.5,7) rotate(270) translate(0,3)" font-family="sans-serif" font-size="10px" fill="#000" opacity="1">1941</text><text text-anchor="end" transform="translate(829.5,7) rotate(270) translate(0,3)" font-family="sans-serif" font-size="10px" fill="#000" opacity="1">1942</text><text text-anchor="end" transform="translate(849.5,7) rotate(270) translate(0,3)" font-family="sans-serif" font-size="10px" fill="#000" opacity="1">1943</text><text text-anchor="end" transform="translate(869.5,7) rotate(270) translate(0,3)" font-family="sans-serif" font-size="10px" fill="#000" opacity="1">1944</text><text text-anchor="end" transform="translate(889.5,7) rotate(270) translate(0,3)" font-family="sans-serif" font-size="10px" fill="#000" opacity="1">1945</text><text text-anchor="end" transform="translate(909.5,7) rotate(270) translate(0,3)" font-family="sans-serif" font-size="10px" fill="#000" opacity="1">1946</text><text text-anchor="end" transform="translate(929.5,7) rotate(270) translate(0,3)" font-family="sans-serif" font-size="10px" fill="#000" opacity="1">1947</text><text text-anchor="end" transform="translate(949.5,7) rotate(270) translate(0,3)" font-family="sans-serif" font-size="10px" fill="#000" opacity="1">1948</text><text text-anchor="end" transform="translate(969.5,7) rotate(270) translate(0,3)" font-family="sans-serif" font-size="10px" fill="#000" opacity="1">1949</text><text text-anchor="end" transform="translate(989.5,7) rotate(270) translate(0,3)" font-family="sans-serif" font-size="10px" fill="#000" opacity="1">1950</text></g><g class="mark-rule role-axis-domain" pointer-events="none"><line transform="translate(0,0)" x2="1000" y2="0" stroke="#888" stroke-width="1" opacity="1"/></g><g class="mark-text role-axis-title" pointer-events="none"><text text-anchor="middle" transform="translate(500,42.266666412353516)" font-family="sans-serif" font-size="11px" font-weight="bold" fill="#000" opacity="1">year</text></g></g><path class="foreground" aria-hidden="true" d="" pointer-events="none" display="none"/></g></g><g class="mark-group role-axis" role="graphics-symbol" aria-roledescription="axis" aria-label="Y-axis titled 'count' for a linear scale with values from 0 to 2,400"><g transform="translate(0.5,0.5)"><path class="background" aria-hidden="true" d="M0,0h0v0h0Z" pointer-events="none"/><g><g class="mark-rule role-axis-tick" pointer-events="none"><line transform="translate(0,300)" x2="-5" y2="0" stroke="#888" stroke-width="1" opacity="1"/><line transform="translate(0,275)" x2="-5" y2="0" stroke="#888" stroke-width="1" opacity="1"/><line transform="translate(0,250)" x2="-5" y2="0" stroke="#888" stroke-width="1" opacity="1"/><line transform="translate(0,225)" x2="-5" y2="0" stroke="#888" stroke-width="1" opacity="1"/><line transform="translate(0,200)" x2="-5" y2="0" stroke="#888" stroke-width="1" opacity="1"/><line transform="translate(0,175)" x2="-5" y2="0" stroke="#888" stroke-width="1" opacity="1"/><line transform="translate(0,150)" x2="-5" y2="0" stroke="#888" stroke-width="1" opacity="1"/><line transform="translate(0,125)" x2="-5" y2="0" stroke="#888" stroke-width="1" opacity="1"/><line transform="translate(0,100)" x2="-5" y2="0" stroke="#888" stroke-width="1" opacity="1"/><line transform="translate(0,75)" x2="-5" y2="0" stroke="#888" stroke-width="1" opacity="1"/><line transform="translate(0,50)" x2="-5" y2="0" stroke="#888" stroke-width="1" opacity="1"/><line transform="translate(0,25)" x2="-5" y2="0" stroke="#888" stroke-width="1" opacity="1"/><line transform="translate(0,0)" x2="-5" y2="0" stroke="#888" stroke-width="1" opacity="1"/></g><g class="mark-text role-axis-label" pointer-events="none"><text text-anchor="end" transform="translate(-7,303)" font-family="sans-serif" font-size="10px" fill="#000" opacity="1">0</text><text text-anchor="end" transform="translate(-7,278)" font-family="sans-serif" font-size="10px" fill="#000" opacity="1">200</text><text text-anchor="end" transform="translate(-7,253)" font-family="sans-serif" font-size="10px" fill="#000" opacity="1">400</text><text text-anchor="end" transform="translate(-7,228)" font-family="sans-serif" font-size="10px" fill="#000" opacity="1">600</text><text text-anchor="end" transform="translate(-7,203.00000000000003)" font-family="sans-serif" font-size="10px" fill="#000" opacity="1">800</text><text text-anchor="end" transform="translate(-7,177.99999999999997)" font-family="sans-serif" font-size="10px" fill="#000" opacity="1">1,000</text><text text-anchor="end" transform="translate(-7,153)" font-family="sans-serif" font-size="10px" fill="#000" opacity="1">1,200</text><text text-anchor="end" transform="translate(-7,127.99999999999999)" font-family="sans-serif" font-size="10px" fill="#000" opacity="1">1,400</text><text text-anchor="end" transform="translate(-7,103.00000000000001)" font-family="sans-serif" font-size="10px" fill="#000" opacity="1">1,600</text><text text-anchor="end" transform="translate(-7,78)" font-family="sans-serif" font-size="10px" fill="#000" opacity="1">1,800</text><text text-anchor="end" transform="translate(-7,52.999999999999986)" font-family="sans-serif" font-size="10px" fill="#000" opacity="1">2,000</text><text text-anchor="end" transform="translate(-7,28.00000000000001)" font-family="sans-serif" font-size="10px" fill="#000" opacity="1">2,200</text><text text-anchor="end" transform="translate(-7,3)" font-family="sans-serif" font-size="10px" fill="#000" opacity="1">2,400</text></g><g class="mark-rule role-axis-domain" pointer-events="none"><line transform="translate(0,300)" x2="0" y2="-300" stroke="#888" stroke-width="1" opacity="1"/></g><g class="mark-text role-axis-title" pointer-events="none"><text text-anchor="middle" transform="translate(-36.03333282470703,150) rotate(-90) translate(0,-2)" font-family="sans-serif" font-size="11px" font-weight="bold" fill="#000" opacity="1">count</text></g></g><path class="foreground" aria-hidden="true" d="" pointer-events="none" display="none"/></g></g><g class="mark-rect role-mark marks" role="graphics-symbol" aria-roledescription="rect mark container"><path d="M1,199.375h18v59.25h-18Z" fill="#e45756"/><path d="M1,141h18v58.375h-18Z" fill="#4c78a8"/><path d="M1,258.625h18v41.375h-18Z" fill="#f58518"/><path d="M21,196.875h18v60.75h-18Z" fill="#e45756"/><path d="M21,136.875h18v60h-18Z" fill="#4c78a8"/><path d="M21,257.625h18v42.375h-18Z" fill="#f58518"/><path d="M41,196.12500000000003h18v61.49999999999997h-18Z" fill="#e45756"/><path d="M41,135.75h18v60.37500000000003h-18Z" fill="#4c78a8"/><path d="M41,257.625h18v42.375h-18Z" fill="#f58518"/><path d="M61,195.49999999999997h18v61.50000000000003h-18Z" fill="#e45756"/><path d="M61,135h18v60.49999999999997h-18Z" fill="#4c78a8"/><path d="M61,257h18v43h-18Z" fill="#f58518"/><path d="M81,196.625h18v60.75h-18Z" fill="#e45756"/><path d="M81,136.125h18v60.5h-18Z" fill="#4c78a8"/><path d="M81,257.375h18v42.625h-18Z" fill="#f58518"/><path d="M101,196.74999999999997h18v60.75000000000003h-18Z" fill="#e45756"/><path d="M101,137.74999999999997h18v59h-18Z" fill="#4c78a8"/><path d="M101,257.5h18v42.5h-18Z" fill="#f58518"/><path d="M121,195.375h18v61.5h-18Z" fill="#e45756"/><path d="M121,135.25h18v60.125h-18Z" fill="#4c78a8"/><path d="M121,256.875h18v43.125h-18Z" fill="#f58518"/><path d="M141,196.74999999999997h18v60.75000000000003h-18Z" fill="#e45756"/><path d="M141,136.25000000000003h18v60.49999999999994h-18Z" fill="#4c78a8"/><path d="M141,257.5h18v42.5h-18Z" fill="#f58518"/><path d="M161,195.87499999999997h18v61.25000000000003h-18Z" fill="#e45756"/><path d="M161,135.25h18v60.62499999999997h-18Z" fill="#4c78a8"/><path d="M161,257.125h18v42.875h-18Z" fill="#f58518"/><path d="M181,197.62499999999997h18v60.00000000000003h-18Z" fill="#e45756"/><path d="M181,138.125h18v59.49999999999997h-18Z" fill="#4c78a8"/><path d="M181,257.625h18v42.375h-18Z" fill="#f58518"/><path d="M201,197.25h18v60.375h-18Z" fill="#e45756"/><path d="M201,137.125h18v60.125h-18Z" fill="#4c78a8"/><path d="M201,257.625h18v42.375h-18Z" fill="#f58518"/><path d="M221,196.5h18v60.625h-18Z" fill="#e45756"/><path d="M221,136h18v60.5h-18Z" fill="#4c78a8"/><path d="M221,257.125h18v42.875h-18Z" fill="#f58518"/><path d="M241,197.75h18v60.25h-18Z" fill="#e45756"/><path d="M241,137.875h18v59.875h-18Z" fill="#4c78a8"/><path d="M241,258h18v42h-18Z" fill="#f58518"/><path d="M261,211.125h18v52.125h-18Z" fill="#e45756"/><path d="M261,159.75h18v51.375h-18Z" fill="#4c78a8"/><path d="M261,263.25h18v36.75h-18Z" fill="#f58518"/><path d="M281,198.25000000000003h18v59.62499999999997h-18Z" fill="#e45756"/><path d="M281,139.125h18v59.12500000000003h-18Z" fill="#4c78a8"/><path d="M281,257.875h18v42.125h-18Z" fill="#f58518"/><path d="M301,199h18v59.75h-18Z" fill="#e45756"/><path d="M301,139.625h18v59.375h-18Z" fill="#4c78a8"/><path d="M301,258.75h18v41.25h-18Z" fill="#f58518"/><path d="M321,140h18v59.12500000000003h-18Z" fill="#4c78a8"/><path d="M321,199.12500000000003h18v59.12499999999997h-18Z" fill="#e45756"/><path d="M321,258.25h18v41.75h-18Z" fill="#f58518"/><path d="M341,199h18v59.625h-18Z" fill="#e45756"/><path d="M341,139.75h18v59.25h-18Z" fill="#4c78a8"/><path d="M341,258.625h18v41.375h-18Z" fill="#f58518"/><path d="M361,138.875h18v59.99999999999997h-18Z" fill="#4c78a8"/><path d="M361,198.87499999999997h18v59.75000000000003h-18Z" fill="#e45756"/><path d="M361,258.625h18v41.375h-18Z" fill="#f58518"/><path d="M381,196.625h18v60.875h-18Z" fill="#e45756"/><path d="M381,136.5h18v60.125h-18Z" fill="#4c78a8"/><path d="M381,257.5h18v42.5h-18Z" fill="#f58518"/><path d="M401,198.87499999999997h18v59.50000000000003h-18Z" fill="#e45756"/><path d="M401,140.5h18v58.37499999999997h-18Z" fill="#4c78a8"/><path d="M401,258.375h18v41.625h-18Z" fill="#f58518"/><path d="M421,198.375h18v59.75h-18Z" fill="#e45756"/><path d="M421,139.375h18v59h-18Z" fill="#4c78a8"/><path d="M421,258.125h18v41.875h-18Z" fill="#f58518"/><path d="M441,198.87499999999997h18v59.75000000000003h-18Z" fill="#e45756"/><path d="M441,139.625h18v59.24999999999997h-18Z" fill="#4c78a8"/><path d="M441,258.625h18v41.375h-18Z" fill="#f58518"/><path d="M461,197.99999999999997h18v60.12500000000003h-18Z" fill="#e45756"/><path d="M461,138.25h18v59.74999999999997h-18Z" fill="#4c78a8"/><path d="M461,258.125h18v41.875h-18Z" fill="#f58518"/><path d="M481,198.375h18v59.875h-18Z" fill="#e45756"/><path d="M481,139.375h18v59h-18Z" fill="#4c78a8"/><path d="M481,258.25h18v41.75h-18Z" fill="#f58518"/><path d="M501,197.99999999999997h18v60.12500000000003h-18Z" fill="#e45756"/><path d="M501,138.37500000000003h18v59.62499999999994h-18Z" fill="#4c78a8"/><path d="M501,258.125h18v41.875h-18Z" fill="#f58518"/><path d="M521,197.99999999999997h18v60.00000000000003h-18Z" fill="#e45756"/><path d="M521,138.75h18v59.24999999999997h-18Z" fill="#4c78a8"/><path d="M521,258h18v42h-18Z" fill="#f58518"/><path d="M541,197.375h18v60.5h-18Z" fill="#e45756"/><path d="M541,137.625h18v59.75h-18Z" fill="#4c78a8"/><path d="M541,257.875h18v42.125h-18Z" fill="#f58518"/><path d="M561,197.75h18v60.25h-18Z" fill="#e45756"/><path d="M561,138h18v59.75h-18Z" fill="#4c78a8"/><path d="M561,258h18v42h-18Z" fill="#f58518"/><path d="M581,197.375h18v60.5h-18Z" fill="#e45756"/><path d="M581,137.875h18v59.5h-18Z" fill="#4c78a8"/><path d="M581,257.875h18v42.125h-18Z" fill="#f58518"/><path d="M601,197.00000000000003h18v60.74999999999997h-18Z" fill="#e45756"/><path d="M601,137.625h18v59.37500000000003h-18Z" fill="#4c78a8"/><path d="M601,257.75h18v42.25h-18Z" fill="#f58518"/><path d="M621,197.375h18v60.5h-18Z" fill="#e45756"/><path d="M621,137.625h18v59.75h-18Z" fill="#4c78a8"/><path d="M621,257.875h18v42.125h-18Z" fill="#f58518"/><path d="M641,197.62499999999997h18v60.00000000000003h-18Z" fill="#e45756"/><path d="M641,138h18v59.62499999999997h-18Z" fill="#4c78a8"/><path d="M641,257.625h18v42.375h-18Z" fill="#f58518"/><path d="M641,137.875h18v0.125h-18Z" fill="#72b7b2"/><path d="M661,129.125h18v58.50000000000003h-18Z" fill="#4c78a8"/><path d="M661,242.125h18v57.875h-18Z" fill="#f58518"/><path d="M661,187.62500000000003h18v54.49999999999997h-18Z" fill="#e45756"/><path d="M681,228.125h18v71.875h-18Z" fill="#f58518"/><path d="M681,168.5h18v59.625h-18Z" fill="#e45756"/><path d="M681,108.99999999999999h18v59.500000000000014h-18Z" fill="#4c78a8"/><path d="M701,227.375h18v72.625h-18Z" fill="#f58518"/><path d="M701,167h18v60.375h-18Z" fill="#e45756"/><path d="M701,108h18v59h-18Z" fill="#4c78a8"/><path d="M721,198.25000000000003h18v101.74999999999997h-18Z" fill="#f58518"/><path d="M721,114h18v84.25000000000003h-18Z" fill="#e45756"/><path d="M721,31.375000000000007h18v82.625h-18Z" fill="#4c78a8"/><path d="M741,190h18v110h-18Z" fill="#f58518"/><path d="M741,99.37500000000001h18v90.62499999999999h-18Z" fill="#e45756"/><path d="M741,10.250000000000004h18v89.12500000000001h-18Z" fill="#4c78a8"/><path d="M761,190.74999999999997h18v109.25000000000003h-18Z" fill="#f58518"/><path d="M761,98.875h18v91.87499999999997h-18Z" fill="#e45756"/><path d="M761,7.999999999999985h18v90.87500000000001h-18Z" fill="#4c78a8"/><path d="M781,188.375h18v111.625h-18Z" fill="#f58518"/><path d="M781,95.37499999999999h18v93.00000000000001h-18Z" fill="#e45756"/><path d="M781,3.500000000000014h18v91.87499999999997h-18Z" fill="#4c78a8"/><path d="M801,188.24999999999997h18v111.75000000000003h-18Z" fill="#f58518"/><path d="M801,94.12499999999999h18v94.12499999999999h-18Z" fill="#e45756"/><path d="M801,2.375000000000005h18v91.74999999999999h-18Z" fill="#4c78a8"/><path d="M821,191.125h18v108.875h-18Z" fill="#f58518"/><path d="M821,88.74999999999999h18v91.12500000000001h-18Z" fill="#4c78a8"/><path d="M821,179.875h18v11.25h-18Z" fill="#e45756"/><path d="M841,187.75h18v112.25h-18Z" fill="#f58518"/><path d="M841,94.49999999999999h18v93.25000000000001h-18Z" fill="#4c78a8"/><path d="M861,189.375h18v110.625h-18Z" fill="#f58518"/><path d="M861,97.87500000000001h18v91.49999999999999h-18Z" fill="#4c78a8"/><path d="M881,191.25h18v108.75h-18Z" fill="#f58518"/><path d="M881,101.625h18v89.625h-18Z" fill="#4c78a8"/><path d="M901,201.75h18v98.25h-18Z" fill="#f58518"/><path d="M901,120.74999999999999h18v81.00000000000001h-18Z" fill="#4c78a8"/><path d="M921,190.5h18v109.5h-18Z" fill="#f58518"/><path d="M921,100.24999999999999h18v90.25000000000001h-18Z" fill="#4c78a8"/><path d="M941,194.62499999999997h18v105.37500000000003h-18Z" fill="#f58518"/><path d="M941,90.00000000000001h18v104.62499999999996h-18Z" fill="#4c78a8"/><path d="M961,178.5h18v121.5h-18Z" fill="#f58518"/><path d="M961,58.00000000000001h18v120.5h-18Z" fill="#4c78a8"/><path d="M981,239.5h18v60.5h-18Z" fill="#f58518"/><path d="M981,179.50000000000003h18v59.99999999999997h-18Z" fill="#4c78a8"/></g><g class="mark-group role-legend" role="graphics-symbol" aria-roledescription="legend" aria-label="Symbol legend titled 'session' for fill color with 4 values: A, M, N, U"><g transform="translate(1018,0)"><path class="background" aria-hidden="true" d="M0,0h42v66h-42Z" pointer-events="none"/><g><g class="mark-group role-legend-entry"><g transform="translate(0,16)"><path class="background" aria-hidden="true" d="M0,0h0v0h0Z" pointer-events="none"/><g><g class="mark-group role-scope" role="graphics-object" aria-roledescription="group mark container"><g transform="translate(0,0)"><path class="background" aria-hidden="true" d="M0,0h24.333333015441895v11h-24.333333015441895Z" pointer-events="none" opacity="1"/><g><g class="mark-symbol role-legend-symbol" pointer-events="none"><path transform="translate(6,6)" d="M-5,-5h10v10h-10Z" fill="#4c78a8" stroke-width="1.5" opacity="1"/></g><g class="mark-text role-legend-label" pointer-events="none"><text text-anchor="start" transform="translate(16,9)" font-family="sans-serif" font-size="10px" fill="#000" opacity="1">A</text></g></g><path class="foreground" aria-hidden="true" d="" pointer-events="none" display="none"/></g><g transform="translate(0,13)"><path class="background" aria-hidden="true" d="M0,0h24.333333015441895v11h-24.333333015441895Z" pointer-events="none" opacity="1"/><g><g class="mark-symbol role-legend-symbol" pointer-events="none"><path transform="translate(6,6)" d="M-5,-5h10v10h-10Z" fill="#f58518" stroke-width="1.5" opacity="1"/></g><g class="mark-text role-legend-label" pointer-events="none"><text text-anchor="start" transform="translate(16,9)" font-family="sans-serif" font-size="10px" fill="#000" opacity="1">M</text></g></g><path class="foreground" aria-hidden="true" d="" pointer-events="none" display="none"/></g><g transform="translate(0,26)"><path class="background" aria-hidden="true" d="M0,0h24.333333015441895v11h-24.333333015441895Z" pointer-events="none" opacity="1"/><g><g class="mark-symbol role-legend-symbol" pointer-events="none"><path transform="translate(6,6)" d="M-5,-5h10v10h-10Z" fill="#e45756" stroke-width="1.5" opacity="1"/></g><g class="mark-text role-legend-label" pointer-events="none"><text text-anchor="start" transform="translate(16,9)" font-family="sans-serif" font-size="10px" fill="#000" opacity="1">N</text></g></g><path class="foreground" aria-hidden="true" d="" pointer-events="none" display="none"/></g><g transform="translate(0,39)"><path class="background" aria-hidden="true" d="M0,0h24.333333015441895v11h-24.333333015441895Z" pointer-events="none" opacity="1"/><g><g class="mark-symbol role-legend-symbol" pointer-events="none"><path transform="translate(6,6)" d="M-5,-5h10v10h-10Z" fill="#72b7b2" stroke-width="1.5" opacity="1"/></g><g class="mark-text role-legend-label" pointer-events="none"><text text-anchor="start" transform="translate(16,9)" font-family="sans-serif" font-size="10px" fill="#000" opacity="1">U</text></g></g><path class="foreground" aria-hidden="true" d="" pointer-events="none" display="none"/></g></g></g><path class="foreground" aria-hidden="true" d="" pointer-events="none" display="none"/></g></g><g class="mark-text role-legend-title" pointer-events="none"><text text-anchor="start" transform="translate(0,9)" font-family="sans-serif" font-size="11px" font-weight="bold" fill="#000" opacity="1">session</text></g></g><path class="foreground" aria-hidden="true" d="" pointer-events="none" display="none"/></g></g></g><path class="foreground" aria-hidden="true" d="" display="none"/></g></g></g></svg>